# xmcd
#
# Track frame offsets:
#	225
#	18930
#	36128
#	55786
#	73336
#	92601
#	110449
#	126854
#	143791
#	157291
#	172259
#	192482
#	207345
#	225152
#	245749
#	261544
#
# Disc length: 3658 seconds
#
# Revision: 0
# Processed by: cddbd v1.5.2PL0 Copyright (c) Steve Scherf et al.
# Submitted via: EZCDAudioConverter 5.5.0.1
#
DISCID=f10e4710
DTITLE=Various Artist - Recuerdos de Amor
DYEAR=2008
DGENRE=Balada
TTITLE0=Sabú - Pequeña y Frágil
TTITLE1=Bertin Osborne - ´mame
TTITLE2=Emilio José - Mi Barca
TTITLE3=Heleno - No son Palabritas
TTITLE4=Nelson Ned - Mi Manera de Amar
TTITLE5=Alejandro Jaen - Si te hubiera conocido Ayer
TTITLE6=José Agusto - Candilejas
TTITLE7=Los Pasteles Verdes - Esclavo y Amo
TTITLE8=Alberto Beltrán - Aunque me cueste la vida
TTITLE9=Lindomar Castillo - Camas Separadas
TTITLE10=Fernando Calle - Te Necesito
TTITLE11=Marie LAforet - Ven
TTITLE12=Juan Erasmo Mochi - Como techo el cielo
TTITLE13=Rudy La Scala - Porque será
TTITLE14=Wilkins - Tu llenas mis días
TTITLE15=Pomada - Mi Promesa
EXTD=
EXTT0=
EXTT1=
EXTT2=
EXTT3=
EXTT4=
EXTT5=
EXTT6=
EXTT7=
EXTT8=
EXTT9=
EXTT10=
EXTT11=
EXTT12=
EXTT13=
EXTT14=
EXTT15=
PLAYORDER=
